<svg width="46" height="11" viewBox="0 0 46 11" fill="none" xmlns="http://www.w3.org/2000/svg">
<path d="M0.69395 1.86121H2.90925C3.70996 1.86121 4.31495 2.05694 4.7242 2.4484C5.21352 2.91103 5.45818 3.73843 5.45818 4.9306C5.45818 5.90925 5.2758 6.66548 4.91103 7.19929C4.55516 7.7331 3.8879 8 2.90925 8H0.69395V1.86121ZM2.20196 7.45285H2.66904C3.00712 7.45285 3.26957 7.33274 3.45641 7.09253C3.65214 6.84342 3.78114 6.54982 3.84342 6.21174C3.90569 5.86477 3.93683 5.43772 3.93683 4.9306C3.93683 4.42349 3.90569 4.00089 3.84342 3.66281C3.78114 3.31584 3.65214 3.02224 3.45641 2.78203C3.26957 2.53292 3.00712 2.40836 2.66904 2.40836H2.20196V7.45285ZM7.92918 2.51512C7.76014 2.67527 7.55107 2.75534 7.30196 2.75534C7.06175 2.75534 6.85267 2.67082 6.67474 2.50178C6.5057 2.32384 6.42118 2.11477 6.42118 1.87456C6.42118 1.62544 6.5057 1.41637 6.67474 1.24733C6.84377 1.06939 7.05285 0.980427 7.30196 0.980427C7.55107 0.980427 7.76014 1.06939 7.92918 1.24733C8.09822 1.41637 8.18274 1.62989 8.18274 1.8879C8.18274 2.13701 8.09822 2.34609 7.92918 2.51512ZM8.04929 8H6.55463V3.19573H8.04929V8ZM11.3354 4.9306L11.7357 5.0774C12.1984 5.21085 12.5498 5.39324 12.79 5.62456C13.0302 5.85587 13.1503 6.1984 13.1503 6.65214C13.1503 7.09698 12.9635 7.45285 12.5898 7.71975C12.2251 7.98665 11.7268 8.12011 11.0952 8.12011C10.4635 8.12011 9.98308 7.9911 9.65389 7.7331C9.33361 7.46619 9.13343 7.07473 9.05336 6.55872L10.2811 6.38523C10.3078 6.69662 10.4012 6.94128 10.5614 7.11922C10.7215 7.29715 10.9306 7.38612 11.1886 7.38612C11.6601 7.38612 11.8959 7.23932 11.8959 6.94573C11.8959 6.64324 11.5578 6.39858 10.8817 6.21174L10.4546 6.07829C10.0098 5.95374 9.67614 5.7758 9.45372 5.54448C9.24019 5.30427 9.13343 4.96174 9.13343 4.5169C9.13343 4.06317 9.31137 3.71174 9.66724 3.46263C10.032 3.20463 10.5169 3.07562 11.1219 3.07562C11.7268 3.07562 12.1895 3.20463 12.5098 3.46263C12.8301 3.72064 13.0302 4.1032 13.1103 4.61032L11.8692 4.77046C11.8158 4.12989 11.5445 3.80961 11.0551 3.80961C10.6103 3.80961 10.3879 3.95196 10.3879 4.23665C10.3879 4.40569 10.468 4.54359 10.6281 4.65036C10.7882 4.74822 11.024 4.84164 11.3354 4.9306ZM15.2489 3.51601C15.6759 3.22242 16.0985 3.07562 16.5167 3.07562C17.8868 3.07562 18.5718 3.91637 18.5718 5.59786C18.5718 7.27936 17.8912 8.12011 16.53 8.12011C16.2364 8.12011 15.9384 8.08897 15.6359 8.02669V9.82829L14.1412 10.0285V3.19573H14.8352L15.2489 3.51601ZM15.6359 7.35943C15.7426 7.37722 15.9028 7.38612 16.1163 7.38612C16.7658 7.38612 17.0905 6.80783 17.0905 5.65125C17.0905 4.49466 16.748 3.91637 16.0629 3.91637C15.9562 3.91637 15.8138 3.94306 15.6359 3.99644V7.35943ZM23.9061 5.59786C23.9061 7.27936 23.1455 8.12011 21.6241 8.12011C20.1117 8.12011 19.3554 7.27936 19.3554 5.59786C19.3554 3.91637 20.1117 3.07562 21.6241 3.07562C23.1455 3.07562 23.9061 3.91637 23.9061 5.59786ZM20.8368 5.59786C20.8368 6.22064 20.8901 6.67438 20.9969 6.95907C21.1037 7.24377 21.3127 7.38612 21.6241 7.38612C21.9444 7.38612 22.1535 7.24822 22.2513 6.97242C22.3581 6.68772 22.4115 6.22954 22.4115 5.59786C22.4115 4.96619 22.3581 4.51246 22.2513 4.23665C22.1535 3.95196 21.9444 3.80961 21.6241 3.80961C21.3127 3.80961 21.1037 3.95196 20.9969 4.23665C20.8901 4.52135 20.8368 4.97509 20.8368 5.59786ZM26.1701 3.62278C26.7128 3.25801 27.2466 3.07562 27.7715 3.07562C28.2964 3.07562 28.6834 3.22242 28.9325 3.51601C29.1905 3.80071 29.3196 4.16993 29.3196 4.62367V8H27.8382V4.8105C27.8382 4.49911 27.7982 4.27224 27.7181 4.12989C27.6381 3.98754 27.4735 3.91637 27.2244 3.91637C26.9841 3.91637 26.7395 4.00089 26.4904 4.16993V8H24.9957V3.19573H25.6763L26.1701 3.62278ZM31.9819 2.51512C31.8129 2.67527 31.6038 2.75534 31.3547 2.75534C31.1145 2.75534 30.9054 2.67082 30.7275 2.50178C30.5584 2.32384 30.4739 2.11477 30.4739 1.87456C30.4739 1.62544 30.5584 1.41637 30.7275 1.24733C30.8965 1.06939 31.1056 0.980427 31.3547 0.980427C31.6038 0.980427 31.8129 1.06939 31.9819 1.24733C32.151 1.41637 32.2355 1.62989 32.2355 1.8879C32.2355 2.13701 32.151 2.34609 31.9819 2.51512ZM32.102 8H30.6074V3.19573H32.102V8ZM35.0011 3.24911C35.3036 3.13345 35.6061 3.07562 35.9086 3.07562C37.2609 3.07562 37.9371 3.91637 37.9371 5.59786C37.9371 7.27936 37.2609 8.12011 35.9086 8.12011C35.4193 8.12011 34.9789 7.96441 34.5874 7.65302L34.2004 8H33.5065V1.71441L35.0011 1.52758V3.24911ZM35.0011 7.1726C35.1613 7.24377 35.3125 7.27936 35.4548 7.27936C36.1221 7.27936 36.4557 6.71886 36.4557 5.59786C36.4557 4.99288 36.3801 4.54359 36.2289 4.25C36.0776 3.95641 35.8241 3.80961 35.4682 3.80961C35.3347 3.80961 35.179 3.83185 35.0011 3.87633V7.1726ZM40.5089 8H39.0143V1.71441L40.5089 1.52758V8ZM45.9449 5.79804H43.1024C43.1024 6.40302 43.1691 6.82117 43.3026 7.05249C43.436 7.27491 43.6451 7.38612 43.9298 7.38612C44.4102 7.38612 44.6504 7.12367 44.6504 6.59875L45.8782 6.62544C45.8337 7.08808 45.6602 7.45285 45.3577 7.71975C45.0552 7.98665 44.5259 8.12011 43.7696 8.12011C43.0223 8.12011 42.4752 7.91103 42.1282 7.49288C41.7901 7.07473 41.6211 6.44306 41.6211 5.59786C41.6211 3.91637 42.3506 3.07562 43.8097 3.07562C45.2332 3.07562 45.9449 3.92972 45.9449 5.6379V5.79804ZM44.5036 5.06406C44.4858 4.62811 44.4236 4.31228 44.3168 4.11655C44.2189 3.91192 44.0543 3.80961 43.823 3.80961C43.6006 3.80961 43.436 3.89858 43.3292 4.07651C43.2314 4.24555 43.1647 4.57473 43.1291 5.06406H44.5036Z" fill="#097000"/>
</svg>
