<svg width="60" height="11" viewBox="0 0 60 11" fill="none" xmlns="http://www.w3.org/2000/svg">
<path d="M5.71174 1.86121V8H4.13701L1.56139 3.43594V8H0.66726V1.86121H2.24199L4.81762 6.42527V1.86121H5.71174ZM11.3524 5.59786C11.3524 7.27936 10.5918 8.12011 9.07041 8.12011C7.55795 8.12011 6.80172 7.27936 6.80172 5.59786C6.80172 3.91637 7.55795 3.07562 9.07041 3.07562C10.5918 3.07562 11.3524 3.91637 11.3524 5.59786ZM8.28304 5.59786C8.28304 6.22064 8.33642 6.67438 8.44318 6.95907C8.54994 7.24377 8.75902 7.38612 9.07041 7.38612C9.39069 7.38612 9.59977 7.24822 9.69763 6.97242C9.80439 6.68772 9.85777 6.22954 9.85777 5.59786C9.85777 4.96619 9.80439 4.51246 9.69763 4.23665C9.59977 3.95196 9.39069 3.80961 9.07041 3.80961C8.75902 3.80961 8.54994 3.95196 8.44318 4.23665C8.33642 4.52135 8.28304 4.97509 8.28304 5.59786ZM14.6393 1.86121H16.8546C17.6553 1.86121 18.2603 2.05694 18.6695 2.4484C19.1588 2.91103 19.4035 3.73843 19.4035 4.9306C19.4035 5.90925 19.2211 6.66548 18.8563 7.19929C18.5005 7.7331 17.8332 8 16.8546 8H14.6393V1.86121ZM16.1473 7.45285H16.6144C16.9524 7.45285 17.2149 7.33274 17.4017 7.09253C17.5974 6.84342 17.7265 6.54982 17.7887 6.21174C17.851 5.86477 17.8821 5.43772 17.8821 4.9306C17.8821 4.42349 17.851 4.00089 17.7887 3.66281C17.7265 3.31584 17.5974 3.02224 17.4017 2.78203C17.2149 2.53292 16.9524 2.40836 16.6144 2.40836H16.1473V7.45285ZM21.8745 2.51512C21.7055 2.67527 21.4964 2.75534 21.2473 2.75534C21.0071 2.75534 20.798 2.67082 20.62 2.50178C20.451 2.32384 20.3665 2.11477 20.3665 1.87456C20.3665 1.62544 20.451 1.41637 20.62 1.24733C20.7891 1.06939 20.9982 0.980427 21.2473 0.980427C21.4964 0.980427 21.7055 1.06939 21.8745 1.24733C22.0435 1.41637 22.1281 1.62989 22.1281 1.8879C22.1281 2.13701 22.0435 2.34609 21.8745 2.51512ZM21.9946 8H20.4999V3.19573H21.9946V8ZM25.2807 4.9306L25.6811 5.0774C26.1437 5.21085 26.4951 5.39324 26.7353 5.62456C26.9755 5.85587 27.0956 6.1984 27.0956 6.65214C27.0956 7.09698 26.9088 7.45285 26.5351 7.71975C26.1704 7.98665 25.6722 8.12011 25.0405 8.12011C24.4088 8.12011 23.9284 7.9911 23.5992 7.7331C23.2789 7.46619 23.0787 7.07473 22.9987 6.55872L24.2264 6.38523C24.2531 6.69662 24.3465 6.94128 24.5067 7.11922C24.6668 7.29715 24.8759 7.38612 25.1339 7.38612C25.6054 7.38612 25.8412 7.23932 25.8412 6.94573C25.8412 6.64324 25.5031 6.39858 24.827 6.21174L24.3999 6.07829C23.9551 5.95374 23.6214 5.7758 23.399 5.54448C23.1855 5.30427 23.0787 4.96174 23.0787 4.5169C23.0787 4.06317 23.2567 3.71174 23.6126 3.46263C23.9773 3.20463 24.4622 3.07562 25.0672 3.07562C25.6722 3.07562 26.1348 3.20463 26.4551 3.46263C26.7754 3.72064 26.9755 4.1032 27.0556 4.61032L25.8145 4.77046C25.7611 4.12989 25.4898 3.80961 25.0005 3.80961C24.5556 3.80961 24.3332 3.95196 24.3332 4.23665C24.3332 4.40569 24.4133 4.54359 24.5734 4.65036C24.7335 4.74822 24.9693 4.84164 25.2807 4.9306ZM29.1942 3.51601C29.6212 3.22242 30.0438 3.07562 30.462 3.07562C31.8321 3.07562 32.5171 3.91637 32.5171 5.59786C32.5171 7.27936 31.8365 8.12011 30.4753 8.12011C30.1817 8.12011 29.8837 8.08897 29.5812 8.02669V9.82829L28.0865 10.0285V3.19573H28.7805L29.1942 3.51601ZM29.5812 7.35943C29.688 7.37722 29.8481 7.38612 30.0616 7.38612C30.7111 7.38612 31.0358 6.80783 31.0358 5.65125C31.0358 4.49466 30.6933 3.91637 30.0082 3.91637C29.9015 3.91637 29.7591 3.94306 29.5812 3.99644V7.35943ZM37.8515 5.59786C37.8515 7.27936 37.0908 8.12011 35.5694 8.12011C34.057 8.12011 33.3007 7.27936 33.3007 5.59786C33.3007 3.91637 34.057 3.07562 35.5694 3.07562C37.0908 3.07562 37.8515 3.91637 37.8515 5.59786ZM34.7821 5.59786C34.7821 6.22064 34.8354 6.67438 34.9422 6.95907C35.049 7.24377 35.258 7.38612 35.5694 7.38612C35.8897 7.38612 36.0988 7.24822 36.1967 6.97242C36.3034 6.68772 36.3568 6.22954 36.3568 5.59786C36.3568 4.96619 36.3034 4.51246 36.1967 4.23665C36.0988 3.95196 35.8897 3.80961 35.5694 3.80961C35.258 3.80961 35.049 3.95196 34.9422 4.23665C34.8354 4.52135 34.7821 4.97509 34.7821 5.59786ZM40.1154 3.62278C40.6581 3.25801 41.1919 3.07562 41.7168 3.07562C42.2417 3.07562 42.6287 3.22242 42.8779 3.51601C43.1359 3.80071 43.2649 4.16993 43.2649 4.62367V8H41.7835V4.8105C41.7835 4.49911 41.7435 4.27224 41.6634 4.12989C41.5834 3.98754 41.4188 3.91637 41.1697 3.91637C40.9295 3.91637 40.6848 4.00089 40.4357 4.16993V8H38.941V3.19573H39.6216L40.1154 3.62278ZM45.9272 2.51512C45.7582 2.67527 45.5491 2.75534 45.3 2.75534C45.0598 2.75534 44.8507 2.67082 44.6728 2.50178C44.5037 2.32384 44.4192 2.11477 44.4192 1.87456C44.4192 1.62544 44.5037 1.41637 44.6728 1.24733C44.8418 1.06939 45.0509 0.980427 45.3 0.980427C45.5491 0.980427 45.7582 1.06939 45.9272 1.24733C46.0963 1.41637 46.1808 1.62989 46.1808 1.8879C46.1808 2.13701 46.0963 2.34609 45.9272 2.51512ZM46.0473 8H44.5527V3.19573H46.0473V8ZM48.9464 3.24911C49.2489 3.13345 49.5514 3.07562 49.8539 3.07562C51.2062 3.07562 51.8824 3.91637 51.8824 5.59786C51.8824 7.27936 51.2062 8.12011 49.8539 8.12011C49.3646 8.12011 48.9242 7.96441 48.5327 7.65302L48.1457 8H47.4518V1.71441L48.9464 1.52758V3.24911ZM48.9464 7.1726C49.1066 7.24377 49.2578 7.27936 49.4002 7.27936C50.0674 7.27936 50.4011 6.71886 50.4011 5.59786C50.4011 4.99288 50.3254 4.54359 50.1742 4.25C50.0229 3.95641 49.7694 3.80961 49.4135 3.80961C49.2801 3.80961 49.1244 3.83185 48.9464 3.87633V7.1726ZM54.4542 8H52.9596V1.71441L54.4542 1.52758V8ZM59.8902 5.79804H57.0477C57.0477 6.40302 57.1144 6.82117 57.2479 7.05249C57.3813 7.27491 57.5904 7.38612 57.8751 7.38612C58.3555 7.38612 58.5957 7.12367 58.5957 6.59875L59.8235 6.62544C59.779 7.08808 59.6055 7.45285 59.303 7.71975C59.0005 7.98665 58.4712 8.12011 57.7149 8.12011C56.9676 8.12011 56.4205 7.91103 56.0735 7.49288C55.7354 7.07473 55.5664 6.44306 55.5664 5.59786C55.5664 3.91637 56.2959 3.07562 57.755 3.07562C59.1785 3.07562 59.8902 3.92972 59.8902 5.6379V5.79804ZM58.4489 5.06406C58.4311 4.62811 58.3689 4.31228 58.2621 4.11655C58.1642 3.91192 57.9996 3.80961 57.7683 3.80961C57.5459 3.80961 57.3813 3.89858 57.2746 4.07651C57.1767 4.24555 57.11 4.57473 57.0744 5.06406H58.4489Z" fill="#FF0000"/>
</svg>
