<svg width="76" height="28" viewBox="0 0 76 28" fill="none" xmlns="http://www.w3.org/2000/svg">
<circle cx="4.5" cy="14.5" r="4.5" fill="#FF0000"/>
<path d="M20.7117 10.8612V17H19.137L16.5614 12.4359V17H15.6673V10.8612H17.242L19.8176 15.4253V10.8612H20.7117ZM26.3524 14.5979C26.3524 16.2794 25.5918 17.1201 24.0704 17.1201C22.558 17.1201 21.8017 16.2794 21.8017 14.5979C21.8017 12.9164 22.558 12.0756 24.0704 12.0756C25.5918 12.0756 26.3524 12.9164 26.3524 14.5979ZM23.283 14.5979C23.283 15.2206 23.3364 15.6744 23.4432 15.9591C23.5499 16.2438 23.759 16.3861 24.0704 16.3861C24.3907 16.3861 24.5998 16.2482 24.6976 15.9724C24.8044 15.6877 24.8578 15.2295 24.8578 14.5979C24.8578 13.9662 24.8044 13.5125 24.6976 13.2367C24.5998 12.952 24.3907 12.8096 24.0704 12.8096C23.759 12.8096 23.5499 12.952 23.4432 13.2367C23.3364 13.5214 23.283 13.9751 23.283 14.5979ZM29.6393 10.8612H31.8546C32.6553 10.8612 33.2603 11.0569 33.6695 11.4484C34.1588 11.911 34.4035 12.7384 34.4035 13.9306C34.4035 14.9093 34.2211 15.6655 33.8563 16.1993C33.5005 16.7331 32.8332 17 31.8546 17H29.6393V10.8612ZM31.1473 16.4528H31.6144C31.9524 16.4528 32.2149 16.3327 32.4017 16.0925C32.5974 15.8434 32.7265 15.5498 32.7887 15.2117C32.851 14.8648 32.8821 14.4377 32.8821 13.9306C32.8821 13.4235 32.851 13.0009 32.7887 12.6628C32.7265 12.3158 32.5974 12.0222 32.4017 11.782C32.2149 11.5329 31.9524 11.4084 31.6144 11.4084H31.1473V16.4528ZM36.8745 11.5151C36.7055 11.6753 36.4964 11.7553 36.2473 11.7553C36.0071 11.7553 35.798 11.6708 35.62 11.5018C35.451 11.3238 35.3665 11.1148 35.3665 10.8746C35.3665 10.6254 35.451 10.4164 35.62 10.2473C35.7891 10.0694 35.9982 9.98043 36.2473 9.98043C36.4964 9.98043 36.7055 10.0694 36.8745 10.2473C37.0435 10.4164 37.1281 10.6299 37.1281 10.8879C37.1281 11.137 37.0435 11.3461 36.8745 11.5151ZM36.9946 17H35.4999V12.1957H36.9946V17ZM40.2807 13.9306L40.6811 14.0774C41.1437 14.2109 41.4951 14.3932 41.7353 14.6246C41.9755 14.8559 42.0956 15.1984 42.0956 15.6521C42.0956 16.097 41.9088 16.4528 41.5351 16.7198C41.1704 16.9867 40.6722 17.1201 40.0405 17.1201C39.4088 17.1201 38.9284 16.9911 38.5992 16.7331C38.2789 16.4662 38.0787 16.0747 37.9987 15.5587L39.2264 15.3852C39.2531 15.6966 39.3465 15.9413 39.5067 16.1192C39.6668 16.2972 39.8759 16.3861 40.1339 16.3861C40.6054 16.3861 40.8412 16.2393 40.8412 15.9457C40.8412 15.6432 40.5031 15.3986 39.827 15.2117L39.3999 15.0783C38.9551 14.9537 38.6214 14.7758 38.399 14.5445C38.1855 14.3043 38.0787 13.9617 38.0787 13.5169C38.0787 13.0632 38.2567 12.7117 38.6126 12.4626C38.9773 12.2046 39.4622 12.0756 40.0672 12.0756C40.6722 12.0756 41.1348 12.2046 41.4551 12.4626C41.7754 12.7206 41.9755 13.1032 42.0556 13.6103L40.8145 13.7705C40.7611 13.1299 40.4898 12.8096 40.0005 12.8096C39.5556 12.8096 39.3332 12.952 39.3332 13.2367C39.3332 13.4057 39.4133 13.5436 39.5734 13.6504C39.7335 13.7482 39.9693 13.8416 40.2807 13.9306ZM44.1942 12.516C44.6212 12.2224 45.0438 12.0756 45.462 12.0756C46.8321 12.0756 47.5171 12.9164 47.5171 14.5979C47.5171 16.2794 46.8365 17.1201 45.4753 17.1201C45.1817 17.1201 44.8837 17.089 44.5812 17.0267V18.8283L43.0865 19.0285V12.1957H43.7805L44.1942 12.516ZM44.5812 16.3594C44.688 16.3772 44.8481 16.3861 45.0616 16.3861C45.7111 16.3861 46.0358 15.8078 46.0358 14.6512C46.0358 13.4947 45.6933 12.9164 45.0082 12.9164C44.9015 12.9164 44.7591 12.9431 44.5812 12.9964V16.3594ZM52.8515 14.5979C52.8515 16.2794 52.0908 17.1201 50.5694 17.1201C49.057 17.1201 48.3007 16.2794 48.3007 14.5979C48.3007 12.9164 49.057 12.0756 50.5694 12.0756C52.0908 12.0756 52.8515 12.9164 52.8515 14.5979ZM49.7821 14.5979C49.7821 15.2206 49.8354 15.6744 49.9422 15.9591C50.049 16.2438 50.258 16.3861 50.5694 16.3861C50.8897 16.3861 51.0988 16.2482 51.1967 15.9724C51.3034 15.6877 51.3568 15.2295 51.3568 14.5979C51.3568 13.9662 51.3034 13.5125 51.1967 13.2367C51.0988 12.952 50.8897 12.8096 50.5694 12.8096C50.258 12.8096 50.049 12.952 49.9422 13.2367C49.8354 13.5214 49.7821 13.9751 49.7821 14.5979ZM55.1154 12.6228C55.6581 12.258 56.1919 12.0756 56.7168 12.0756C57.2417 12.0756 57.6287 12.2224 57.8779 12.516C58.1359 12.8007 58.2649 13.1699 58.2649 13.6237V17H56.7835V13.8105C56.7835 13.4991 56.7435 13.2722 56.6634 13.1299C56.5834 12.9875 56.4188 12.9164 56.1697 12.9164C55.9295 12.9164 55.6848 13.0009 55.4357 13.1699V17H53.941V12.1957H54.6216L55.1154 12.6228ZM60.9272 11.5151C60.7582 11.6753 60.5491 11.7553 60.3 11.7553C60.0598 11.7553 59.8507 11.6708 59.6728 11.5018C59.5037 11.3238 59.4192 11.1148 59.4192 10.8746C59.4192 10.6254 59.5037 10.4164 59.6728 10.2473C59.8418 10.0694 60.0509 9.98043 60.3 9.98043C60.5491 9.98043 60.7582 10.0694 60.9272 10.2473C61.0963 10.4164 61.1808 10.6299 61.1808 10.8879C61.1808 11.137 61.0963 11.3461 60.9272 11.5151ZM61.0473 17H59.5527V12.1957H61.0473V17ZM63.9464 12.2491C64.2489 12.1335 64.5514 12.0756 64.8539 12.0756C66.2062 12.0756 66.8824 12.9164 66.8824 14.5979C66.8824 16.2794 66.2062 17.1201 64.8539 17.1201C64.3646 17.1201 63.9242 16.9644 63.5327 16.653L63.1457 17H62.4518V10.7144L63.9464 10.5276V12.2491ZM63.9464 16.1726C64.1066 16.2438 64.2578 16.2794 64.4002 16.2794C65.0674 16.2794 65.4011 15.7189 65.4011 14.5979C65.4011 13.9929 65.3254 13.5436 65.1742 13.25C65.0229 12.9564 64.7694 12.8096 64.4135 12.8096C64.2801 12.8096 64.1244 12.8319 63.9464 12.8763V16.1726ZM69.4542 17H67.9596V10.7144L69.4542 10.5276V17ZM74.8902 14.798H72.0477C72.0477 15.403 72.1144 15.8212 72.2479 16.0525C72.3813 16.2749 72.5904 16.3861 72.8751 16.3861C73.3555 16.3861 73.5957 16.1237 73.5957 15.5988L74.8235 15.6254C74.779 16.0881 74.6055 16.4528 74.303 16.7198C74.0005 16.9867 73.4712 17.1201 72.7149 17.1201C71.9676 17.1201 71.4205 16.911 71.0735 16.4929C70.7354 16.0747 70.5664 15.4431 70.5664 14.5979C70.5664 12.9164 71.2959 12.0756 72.755 12.0756C74.1785 12.0756 74.8902 12.9297 74.8902 14.6379V14.798ZM73.4489 14.0641C73.4311 13.6281 73.3689 13.3123 73.2621 13.1165C73.1642 12.9119 72.9996 12.8096 72.7683 12.8096C72.5459 12.8096 72.3813 12.8986 72.2746 13.0765C72.1767 13.2456 72.11 13.5747 72.0744 14.0641H73.4489Z" fill="#FF0000"/>
</svg>
