<svg width="62" height="28" viewBox="0 0 62 28" fill="none" xmlns="http://www.w3.org/2000/svg">
<circle cx="4.5" cy="13.5" r="4.5" fill="#14FF00"/>
<path d="M15.694 10.8612H17.9093C18.71 10.8612 19.3149 11.0569 19.7242 11.4484C20.2135 11.911 20.4582 12.7384 20.4582 13.9306C20.4582 14.9093 20.2758 15.6655 19.911 16.1993C19.5552 16.7331 18.8879 17 17.9093 17H15.694V10.8612ZM17.202 16.4528H17.669C18.0071 16.4528 18.2696 16.3327 18.4564 16.0925C18.6521 15.8434 18.7811 15.5498 18.8434 15.2117C18.9057 14.8648 18.9368 14.4377 18.9368 13.9306C18.9368 13.4235 18.9057 13.0009 18.8434 12.6628C18.7811 12.3158 18.6521 12.0222 18.4564 11.782C18.2696 11.5329 18.0071 11.4084 17.669 11.4084H17.202V16.4528ZM22.9292 11.5151C22.7601 11.6753 22.5511 11.7553 22.302 11.7553C22.0617 11.7553 21.8527 11.6708 21.6747 11.5018C21.5057 11.3238 21.4212 11.1148 21.4212 10.8746C21.4212 10.6254 21.5057 10.4164 21.6747 10.2473C21.8438 10.0694 22.0528 9.98043 22.302 9.98043C22.5511 9.98043 22.7601 10.0694 22.9292 10.2473C23.0982 10.4164 23.1827 10.6299 23.1827 10.8879C23.1827 11.137 23.0982 11.3461 22.9292 11.5151ZM23.0493 17H21.5546V12.1957H23.0493V17ZM26.3354 13.9306L26.7357 14.0774C27.1984 14.2109 27.5498 14.3932 27.79 14.6246C28.0302 14.8559 28.1503 15.1984 28.1503 15.6521C28.1503 16.097 27.9635 16.4528 27.5898 16.7198C27.2251 16.9867 26.7268 17.1201 26.0952 17.1201C25.4635 17.1201 24.9831 16.9911 24.6539 16.7331C24.3336 16.4662 24.1334 16.0747 24.0534 15.5587L25.2811 15.3852C25.3078 15.6966 25.4012 15.9413 25.5614 16.1192C25.7215 16.2972 25.9306 16.3861 26.1886 16.3861C26.6601 16.3861 26.8959 16.2393 26.8959 15.9457C26.8959 15.6432 26.5578 15.3986 25.8817 15.2117L25.4546 15.0783C25.0098 14.9537 24.6761 14.7758 24.4537 14.5445C24.2402 14.3043 24.1334 13.9617 24.1334 13.5169C24.1334 13.0632 24.3114 12.7117 24.6672 12.4626C25.032 12.2046 25.5169 12.0756 26.1219 12.0756C26.7268 12.0756 27.1895 12.2046 27.5098 12.4626C27.8301 12.7206 28.0302 13.1032 28.1103 13.6103L26.8692 13.7705C26.8158 13.1299 26.5445 12.8096 26.0551 12.8096C25.6103 12.8096 25.3879 12.952 25.3879 13.2367C25.3879 13.4057 25.468 13.5436 25.6281 13.6504C25.7882 13.7482 26.024 13.8416 26.3354 13.9306ZM30.2489 12.516C30.6759 12.2224 31.0985 12.0756 31.5167 12.0756C32.8868 12.0756 33.5718 12.9164 33.5718 14.5979C33.5718 16.2794 32.8912 17.1201 31.53 17.1201C31.2364 17.1201 30.9384 17.089 30.6359 17.0267V18.8283L29.1412 19.0285V12.1957H29.8352L30.2489 12.516ZM30.6359 16.3594C30.7426 16.3772 30.9028 16.3861 31.1163 16.3861C31.7658 16.3861 32.0905 15.8078 32.0905 14.6512C32.0905 13.4947 31.748 12.9164 31.0629 12.9164C30.9562 12.9164 30.8138 12.9431 30.6359 12.9964V16.3594ZM38.9061 14.5979C38.9061 16.2794 38.1455 17.1201 36.6241 17.1201C35.1117 17.1201 34.3554 16.2794 34.3554 14.5979C34.3554 12.9164 35.1117 12.0756 36.6241 12.0756C38.1455 12.0756 38.9061 12.9164 38.9061 14.5979ZM35.8368 14.5979C35.8368 15.2206 35.8901 15.6744 35.9969 15.9591C36.1037 16.2438 36.3127 16.3861 36.6241 16.3861C36.9444 16.3861 37.1535 16.2482 37.2513 15.9724C37.3581 15.6877 37.4115 15.2295 37.4115 14.5979C37.4115 13.9662 37.3581 13.5125 37.2513 13.2367C37.1535 12.952 36.9444 12.8096 36.6241 12.8096C36.3127 12.8096 36.1037 12.952 35.9969 13.2367C35.8901 13.5214 35.8368 13.9751 35.8368 14.5979ZM41.1701 12.6228C41.7128 12.258 42.2466 12.0756 42.7715 12.0756C43.2964 12.0756 43.6834 12.2224 43.9325 12.516C44.1905 12.8007 44.3196 13.1699 44.3196 13.6237V17H42.8382V13.8105C42.8382 13.4991 42.7982 13.2722 42.7181 13.1299C42.6381 12.9875 42.4735 12.9164 42.2244 12.9164C41.9841 12.9164 41.7395 13.0009 41.4904 13.1699V17H39.9957V12.1957H40.6763L41.1701 12.6228ZM46.9819 11.5151C46.8129 11.6753 46.6038 11.7553 46.3547 11.7553C46.1145 11.7553 45.9054 11.6708 45.7275 11.5018C45.5584 11.3238 45.4739 11.1148 45.4739 10.8746C45.4739 10.6254 45.5584 10.4164 45.7275 10.2473C45.8965 10.0694 46.1056 9.98043 46.3547 9.98043C46.6038 9.98043 46.8129 10.0694 46.9819 10.2473C47.151 10.4164 47.2355 10.6299 47.2355 10.8879C47.2355 11.137 47.151 11.3461 46.9819 11.5151ZM47.102 17H45.6074V12.1957H47.102V17ZM50.0011 12.2491C50.3036 12.1335 50.6061 12.0756 50.9086 12.0756C52.2609 12.0756 52.9371 12.9164 52.9371 14.5979C52.9371 16.2794 52.2609 17.1201 50.9086 17.1201C50.4193 17.1201 49.9789 16.9644 49.5874 16.653L49.2004 17H48.5065V10.7144L50.0011 10.5276V12.2491ZM50.0011 16.1726C50.1613 16.2438 50.3125 16.2794 50.4548 16.2794C51.1221 16.2794 51.4557 15.7189 51.4557 14.5979C51.4557 13.9929 51.3801 13.5436 51.2289 13.25C51.0776 12.9564 50.8241 12.8096 50.4682 12.8096C50.3347 12.8096 50.179 12.8319 50.0011 12.8763V16.1726ZM55.5089 17H54.0143V10.7144L55.5089 10.5276V17ZM60.9449 14.798H58.1024C58.1024 15.403 58.1691 15.8212 58.3026 16.0525C58.436 16.2749 58.6451 16.3861 58.9298 16.3861C59.4102 16.3861 59.6504 16.1237 59.6504 15.5988L60.8782 15.6254C60.8337 16.0881 60.6602 16.4528 60.3577 16.7198C60.0552 16.9867 59.5259 17.1201 58.7696 17.1201C58.0223 17.1201 57.4752 16.911 57.1282 16.4929C56.7901 16.0747 56.6211 15.4431 56.6211 14.5979C56.6211 12.9164 57.3506 12.0756 58.8097 12.0756C60.2332 12.0756 60.9449 12.9297 60.9449 14.6379V14.798ZM59.5036 14.0641C59.4858 13.6281 59.4236 13.3123 59.3168 13.1165C59.2189 12.9119 59.0543 12.8096 58.823 12.8096C58.6006 12.8096 58.436 12.8986 58.3292 13.0765C58.2314 13.2456 58.1647 13.5747 58.1291 14.0641H59.5036Z" fill="#14FF00"/>
</svg>
